<svg xmlns="http://www.w3.org/2000/svg" viewBox="0 0 30.8 30.8"><title>nopad-brighton_ski_resort</title><path d="M15.3 1l2.5 5 4.7-3.1-.3 5.6 5.6-.3-3.1 4.7 5 2.5-5 2.5 3.1 4.7-5.6-.3.3 5.6-4.7-3.1-2.5 5-2.5-5-4.7 3.1.3-5.6-5.6.3 3.2-4.7-5-2.5 5-2.5-3.1-4.7 5.6.3-.4-5.6 4.7 3.1" fill="#00539f"/><path d="M19.2 17v-3.1l1.9 1.1 2.5-1.4v-2.9l-2.5-1.4-2.5 1.4v2.2l-2.8-1.6 2-1.1v-2.8l-2.4-1.4-2.4 1.4v2.8l2 1.1-2.9 1.7v-2.3l-2.5-1.4-2.4 1.4v2.8l2.4 1.5 2-1.2v3.2l-2-1.2-2.4 1.5v2.8l2.5 1.4 2.5-1.4v-2.2l2.8 1.6-2 1.1v2.8l2.5 1.4 2.5-1.4v-2.7l-2-1.1 2.8-1.6v2.2l2.5 1.4 2.5-1.4v-2.9l-2.5-1.4" fill="#fff200"/><path d="M30.4 14.9h-.2a17.9 17.9 0 0 0-.5-3.7 25.9 25.9 0 0 0-1.1-2.9l-.5-1.1h-.1a17.8 17.8 0 0 0-2.3-2.9 32.6 32.6 0 0 0-3.4-2.3v.3a17.2 17.2 0 0 0-3.2-1.4l-3.2-.5h-1.1a17.9 17.9 0 0 0-3.7.5 32.4 32.4 0 0 0-4 1.6l.3.2a18.5 18.5 0 0 0-3 2.3 32.5 32.5 0 0 0-2.6 3.5h.4a17.2 17.2 0 0 0-1.2 3.3 32.7 32.7 0 0 0-.6 4.2h.2a17.7 17.7 0 0 0 .5 3.6 27.2 27.2 0 0 0 1.1 2.9h-.4a22.7 22.7 0 0 0 2.9 3.9 32.8 32.8 0 0 0 3.5 2.6v-.4a18.1 18.1 0 0 0 3.4 1.4l3 .5h1.2v-.2a18.1 18.1 0 0 0 3.6-.6l2.8-1.1h.1l1.1-.5h-.1a17.6 17.6 0 0 0 2.8-2.3 25.4 25.4 0 0 0 1.8-2.3l.8-1.1h-.2a17.2 17.2 0 0 0 1.3-3.3 32.1 32.1 0 0 0 .6-4.3m-8.5 7.1l.2 5.4-4.5-2.9-2.5 4.8-2.1-4.7-4.7 2.9.3-5.2-5 .2 3-4.5-4.8-2.5 4.7-2.4-2.8-4.4 4.9.3-.3-5.6 4.4 3 2.6-4.8 2.3 5 4.6-2.7-.4 5 5.4-.2-3 4.4 4.9 2.6-4.9 2.3 2.8 4.5-5.2-.3z" fill="#da2032"/><circle cx="15.4" cy="15.4" r="14.9" stroke="#010101" stroke-width="1.06" fill="none"/></svg>