<svg xmlns="http://www.w3.org/2000/svg" viewBox="0 0 22.7 30"><title>nopad-deer_valley_resort</title><path d="M8.3 24.8s-9.6-19.9 2.3-22c0 0 9.3.2 9.4 7.9 0 0 1.9 12.1-5.1 14a11.2 11.2 0 0 1-6.7.1" fill="#fff"/><path d="M5.8 25.6c0-.1 0-.1-.1-.1h.3c.1 0 .2 0 .2.2v.2l.2.3h-.5c0 .1 0 .1.1.1h-.3c.1 0 .1 0 .1-.1v-.3zm.1.1zm-.5 0a.6.6 0 1 1 .6.6.6.6 0 0 1-.6-.6zm.6.5a.5.5 0 1 0-.5-.5.5.5 0 0 0 .5.5zm4.3-10.8a.9.9 0 0 0 1.5.3c-.3-.9-1.1-.5-1.5-.2zm6.1-4.9l.7-.3c1.1-.4-.1-1.5-.5-1.9a6.9 6.9 0 0 1-.2 2.1zm5.8 5.3a10.9 10.9 0 0 0 .4-4.6s-.6.5-.6-.1a8.2 8.2 0 0 0-1.6-4.7s-.3.7-.6.2a8.2 8.2 0 0 0-2.7-3s0 .7-.4.4a7.7 7.7 0 0 0-2.5-1.8s.2.7-.4.4a4.2 4.2 0 0 1-2-2.6 7.6 7.6 0 0 1-3.3 2.9c-.5.2-.5-.4-.5-.4a14.7 14.7 0 0 0-2.4 2c-.4.3-.5-.3-.5-.3a11.2 11.2 0 0 0-2.2 3.1c-.3.5-.6-.1-.6-.1a11.1 11.1 0 0 0-1.4 3.8c-.1.6-.6 0-.6 0a13.2 13.2 0 0 0 .2 4.7c.1.6-.5.2-.5.2a9.2 9.2 0 0 0 2 4.1c.4.5-.4.4-.4.4 2.7 3.3 6.2 3.3 7.1 5.1a4 4 0 0 1-.1 3.2c-.1.2-.2.5-.1.7s1.2.6 1.2.5c.4-4.9-1.4-4.3-1.7-6.6l1.2-6.8c-.2-1.7-2.5-.8-2.1-4.1 1.8.1 2.3 1.3 3.1 1.3a2.3 2.3 0 0 0-1.2-1.5c-1.8-1-3.2-1.4-2.4-3.6a16.2 16.2 0 0 1 .7-1.6s-.3-.6-.3-1 .1-.6.3-.7a9 9 0 0 0 .1 1.2 8.9 8.9 0 0 1 1.9-2.4.5.5 0 0 1 .5-.1 9.7 9.7 0 0 0-2.2 3.3 12.4 12.4 0 0 0 .7 2l1.2-.7a.5.5 0 0 1-.1.6l-.8.6.7 1.3c.3.4.7 1.1 1 1.1s.3-.8.9-.9.1.5.1.7-.5 1.7.8 1.7a.9.9 0 0 0 .9-.6 1.3 1.3 0 0 0-.1-1 .8.8 0 0 1-.1-.8.6.6 0 0 1 .6.4 2.8 2.8 0 0 1 .3.8 7.2 7.2 0 0 1 1.8-1.3 5.2 5.2 0 0 0 .4-3.2l-.8-.4a.6.6 0 0 1-.2-.4l.9.3a7.2 7.2 0 0 0-1.8-3.2h.5a7.8 7.8 0 0 1 1.5 2.2 2.7 2.7 0 0 0 .1-1.2c.2 0 .3.2.4.4a2.3 2.3 0 0 1-.2 1.4l.2.7a5.5 5.5 0 0 1 1.3 1 2.6 2.6 0 0 0-.1-1 3.2 3.2 0 0 0-.4-.9.7.7 0 0 1 .7.5 5.6 5.6 0 0 1 .3 2.3 1.4 1.4 0 0 1-.2 1c-.3.5-2.8.9-4.1 2.9v.3c.9.1 1.3-.8 2.4-.6a2.2 2.2 0 0 1-.4 1.8 2 2 0 0 1-1.1.7.7.7 0 0 0-.9-.4.8.8 0 0 0-.4.4c.8.6 2.2.7 2.2 1.1a2 2 0 0 0-1 0c-.2.1 0 .5.1.6a1 1 0 0 0 .8.2c0 .5-1 .6-1.9.8a15.6 15.6 0 0 0 1.2 6.3 12.6 12.6 0 0 0 6.3-4.2s-.7 0-.4-.4a8.8 8.8 0 0 0 1.9-4s-.7.3-.5-.3zm-14.2-5.6l-.9.3a4.9 4.9 0 0 0 1.4.8l-.5-1.1zm-.2-.6a14.6 14.6 0 0 1-.5-1.6 4.6 4.6 0 0 0-.4 1.8l.9-.3z" fill="#006647"/></svg>