<svg xmlns="http://www.w3.org/2000/svg" viewBox="0 0 35.1 16"><title>nopad-park_city_mountain_resort</title><path d="M35.1 5.7a8.5 8.5 0 0 0-1-3.9c-.4-.7-1.3-2.1-3.1-.6a14 14 0 0 0-1.9 2 6.4 6.4 0 0 0-.6-2.2 2 2 0 0 0-2.3-.9 4.5 4.5 0 0 0-1.9 1.3l-1.1 1.1-.9-1.4a2.9 2.9 0 0 0-1.1-.9 1.2 1.2 0 0 0-1 0c-1.9 1-3.4 3.7-3.7 4.1a5.8 5.8 0 0 0-.7 1.9 2.7 2.7 0 0 0 .2 1.6 1.6 1.6 0 0 0 2.2 1l1.3-.8a25.7 25.7 0 0 0 3.5-3.3l1.5-1.7s1.3-1.5 2.3-1.5a1.9 1.9 0 0 1 1.3.5 3.7 3.7 0 0 1 .8 1.4l-1.2 1.4c-2.3 2.7-3 1.7-3.3 1.2l-.6-1.3a7.1 7.1 0 0 0 .2 1.4c.4 1.1.7 1.6 1.2 1.9s1.1 0 1.7-.5a17.4 17.4 0 0 0 2.5-2.6 11.6 11.6 0 0 0 .6 1.5 4 4 0 0 0 1.9 2 2.5 2.5 0 0 0 1.9.1c.4-.2 1.3-.5 1.3-2.8zm-13.8-1.1a13.9 13.9 0 0 1-3.3 2.7 2 2 0 0 1-1.2.2.5.5 0 0 1-.5-.5c-.1-.4.6-1.6.8-2a12.2 12.2 0 0 1 2.6-3 2.3 2.3 0 0 1 1.5-.5 3.6 3.6 0 0 1 1.7 1.3l-1.6 1.8zm12.9 1.8a1.6 1.6 0 0 1-1.3.7 2.9 2.9 0 0 1-1.6-.5 3.9 3.9 0 0 1-1.7-2.1l1.5-1.7a2.8 2.8 0 0 1 1.7-.9c.8 0 1.2.9 1.4 1.3a3.8 3.8 0 0 1 0 3.2z" fill="#981b1e"/><path d="M0 12h1.3c.8 0 1.4.4 1.4 1.3s-.6 1.3-1.4 1.3h-.7v1.4h-.6zm1.2 2c.5 0 .8-.2.8-.7s-.3-.7-.8-.7h-.6v1.4h.6zm4.3-2h.1l1.7 4h-.6l-.3-.7h-1.7l-.3.7h-.5l1.7-4zm.6 2.7l-.4-1.1-.2-.6-.2.6-.4 1.1h1.3zm2.8-2.7h1.3c.8 0 1.4.4 1.4 1.2a1.1 1.1 0 0 1-.8 1.1l.9 1.5h-.7l-.8-1.5h-.7v1.5h-.6v-3.8zm1.3 2c.5 0 .8-.2.8-.7s-.3-.7-.8-.7h-.7v1.4h.7zm3.4-2h.6v2.1l.3-.5 1.3-1.6h.7l-1.4 1.7 1.5 2.2h-.7l-1.2-1.7-.4.5v1.2h-.6v-3.9zm6.4 2a2 2 0 0 1 2-2 1.8 1.8 0 0 1 1.6.8l-.5.3a1.3 1.3 0 0 0-1.1-.6 1.4 1.4 0 0 0-1.4 1.5 1.4 1.4 0 0 0 1.4 1.4 1.3 1.3 0 0 0 1.2-.6l.5.3a1.9 1.9 0 0 1-1.7.9 2 2 0 0 1-2-2zm5.3-2h.6v3.9h-.6zm3.5.5h-1.2v-.5h2.9v.5h-1.2v3.4h-.6v-3.3zm4.5 1.9l-1.5-2.4h.7l.8 1.4.2.6.2-.6.7-1.4h.6l-1.3 2.5v1.5h-.6v-1.5z" fill="#414042"/></svg>