<svg xmlns="http://www.w3.org/2000/svg" viewBox="0 0 35 25.8"><title>nopad-snowbird_ski_and_summer_resort</title><path d="M2.1 1.6c1.3 0 2.1.5 2.1 1.6h-1.2s0-.6-1-.7-.7.1-.7.4 1.1.5 1.6.6 1.3.6 1.3 1.5-.4 1.7-1.9 1.7a2.6 2.6 0 0 1-1.6-.4 1.8 1.8 0 0 1-.7-1.4h1.2s0 .9 1 .9.8-.2.8-.6-2.8-.3-2.9-1.9.6-1.7 2-1.7"/><path d="M35 8l-16.3 17.7h-.1v-10.6a7.4 7.4 0 0 1 1-3.5 7.8 7.8 0 0 1 1.6-1.9 7.7 7.7 0 0 1 4.9-1.7h8.9z" fill="#5aad41"/><path d="M.1 8l16.3 17.7v-10.6a7.4 7.4 0 0 0-1-3.5 6.8 6.8 0 0 0-1.1-1.5l-.5-.4a7.7 7.7 0 0 0-4.8-1.7h-8.9z" fill="#0099d8"/><path d="M4.5 1.6h1.4v.6a2 2 0 0 1 1.3-.7 1.6 1.6 0 0 1 1.7 1.8v3.3h-1.4v-3.1a.8.8 0 0 0-.8-.8.8.8 0 0 0-.8.8v3.1h-1.4v-5zm9.1.1h1.2l.8 2.8.9-2.8h1.2l.8 2.8.8-2.8h1.3s-1.5 4.8-1.4 4.8h-1.1l-1-3s-.7 2-.9 3h-1.1zm14 0h1.4v.5c.4-.7 1.5-.5 1.5-.5v1.1a1.2 1.2 0 0 0-1.5 1.2v2.6h-1.4zm-1.9 0h1.4v4.9h-1.3zM33.9 4.2a1.3 1.3 0 0 0-1.1-1.5 1.3 1.3 0 0 0-1.1 1.5 1.3 1.3 0 0 0 1.1 1.5 1.3 1.3 0 0 0 1.1-1.5m1.1-4.2h-1.3v2.1a1.5 1.5 0 0 0-1.1-.5c-.6 0-2.2.3-2.2 2.4s1.2 2.5 2.2 2.5a1.5 1.5 0 0 0 1-.5v.4h1.4v-6.4zm-13.1 4.2a1.3 1.3 0 0 1 1.1-1.5 1.3 1.3 0 0 1 1.1 1.5 1.3 1.3 0 0 1-1.1 1.5 1.3 1.3 0 0 1-1.1-1.5m-1.1-4.2h1.3v2.1a1.3 1.3 0 0 1 1.1-.5c.6 0 2.2.2 2.2 2.4s-1.2 2.5-2.2 2.5a1.5 1.5 0 0 1-1-.5v.4h-1.4v-6.4zm-9.3 2.7c.7 0 1.1.6 1.1 1.4s-.4 1.5-1.1 1.5-1.1-.6-1.1-1.6.5-1.4 1.1-1.4m0-1.1a2.3 2.3 0 0 1 2.5 2.5 2.4 2.4 0 0 1-2.5 2.6 2.4 2.4 0 0 1-2.5-2.5 2.4 2.4 0 0 1 2.5-2.5"/><ellipse cx="11.5" cy="4.2" rx="1.1" ry="1.5" fill="#fff"/><ellipse cx="23.1" cy="4.2" rx="1.1" ry="1.5" fill="#fff"/><ellipse cx="32.7" cy="4.2" rx="1.1" ry="1.5" fill="#fff"/></svg>