<svg xmlns="http://www.w3.org/2000/svg" xmlns:xlink="http://www.w3.org/1999/xlink" width="45" height="40" viewBox="0 0 45 40"><defs><path id="a" d="M0-3h45v45.558H0z"/></defs><clipPath id="b"><use xlink:href="#a" overflow="visible"/></clipPath><path clip-path="url(#b)" fill="#FFF" d="M35.518 3.946l-3.483 1.412s2.284-1.584 1.812-2.793l-9.438 6.93a1.471 1.471 0 0 0-.41.464l-3.767 7.7-2.042-1.25h-.007s-.84-.62-1.727-.037c0 0-.646-.04-.91.147-.236.166-.15.428-.15.428.727-.44 1.894 1.243 2.814 2.285-2.86-.918-10.025-5.853-10.025-5.853.088 1.27 2.123 2.694 2.123 2.694l-1.836-.432c.286.903 2.535 1.71 2.535 1.71l-1.917-.04c.482.842 3.028 1.392 3.028 1.392l-2.022.154c.712.737 3.49 1.045 3.49 1.045l-2.157.36c1.473.917 4.756.788 4.756.788l-2.465.48c2.296.92 5.556.85 6.974.598 1.56 1.712 3.168 3.545 5.137 3.8l-1.58-1.78s2.054 1.19 3.546 1.147l-2.338-1.763s2.746 1.065 4.178.76l-3.055-1.595s3.664.823 4.856.167L27.49 21.8s4.34.41 5.674-.904c0 0-6.58.473-10.145-1.38 0 0 1.893-.075 2.936-.858l-1.432-.404s1.85.006 2.855-.743l-1.478-.525s1.945.13 2.823-.61l-1.57-.67s2.128.186 2.92-.547l-1.764-.787s2.397.16 3.154-.627l-2.11-.753s2.638.166 3.36-.698l-2.4-.827s2.94.124 3.576-.804l-2.81-.73s3.427-.054 3.89-1.26l-3.357-.208s3.82-.61 4.067-2.19l-3.73.635c0-.004 3.796-1.453 3.568-2.96M7.31 32.154l.98-.718c.423.657.876.93 1.404.93.445 0 .725-.204.725-.507 0-.28-.19-.446-.71-.566l-.605-.137c-.996-.226-1.494-.73-1.494-1.593 0-.905.726-1.668 2.16-1.668.928 0 1.735.393 2.173 1.02l-.966.71c-.415-.53-.785-.718-1.208-.718-.408 0-.665.166-.665.453 0 .235.158.394.574.483l.603.13c1.238.263 1.698.867 1.698 1.697 0 .98-.86 1.736-2.286 1.736-1.117 0-1.985-.46-2.385-1.252m9.072-.732c0 1.147-.785 1.985-2.022 1.985-1.238 0-2.023-.838-2.023-1.985v-.09c0-1.148.785-1.986 2.023-1.986 1.237 0 2.022.838 2.022 1.985v.092zm-1.38.022V31.3c0-.838-.242-1.17-.643-1.17s-.643.332-.643 1.17v.144c0 .846.24 1.17.642 1.17s.64-.324.64-1.17m1.918-3.434h1.328v5.284h-1.328V28.01zm2.053.038h1.33v1.02h-1.33v-1.02zm0 1.41h1.33v3.836h-1.33V29.46zm2.318 2.605V30.29h-.56v-.83h.56V28.4h1.328v1.057h.958v.83h-.958v1.75c0 .287.113.37.407.37.137 0 .37-.022.544-.037v.883c-.302.06-.65.105-.95.105-.997 0-1.33-.368-1.33-1.297m5.104.56c-.24.543-.633.784-1.16.784-.855 0-1.23-.574-1.23-1.36V29.46h1.327v2.377c0 .385.15.573.476.573.377 0 .59-.264.59-.71v-2.24h1.327v3.834H26.39v-.672zm4.462.09a1.181 1.181 0 0 1-1.103.694c-.922 0-1.533-.838-1.533-1.963V31.3c0-1.117.61-1.955 1.532-1.955.505 0 .905.272 1.102.695v-2.03h1.328v5.284h-1.328v-.58zM29.6 31.3v.145c0 .846.24 1.17.64 1.17.378 0 .642-.354.642-1.17V31.3c0-.807-.264-1.17-.64-1.17-.402 0-.643.333-.643 1.17m3.078.122v-.09c0-1.17.83-1.986 1.955-1.986 1.238 0 1.925.763 1.925 2.03v.242h-2.536c.038.725.324.996.762.996.28 0 .566-.173.83-.61l.922.36c-.287.635-.96 1.043-1.797 1.043-1.224 0-2.062-.77-2.062-1.985m1.35-.46h1.2c-.037-.635-.22-.846-.58-.846-.333 0-.558.234-.62.845m-22.491 4.254h.042c.017 0 .04-.026.04-.042v-.56c0-.016-.023-.04-.04-.04h-.042v-.183h.54l.114.46h.004l.115-.46h.542v.183h-.042c-.016 0-.04.024-.04.04v.56c0 .016.024.042.04.042h.043v.176h-.487v-.175h.08v-.55h-.004l-.196.726h-.19l-.195-.724h-.003v.55h.086v.175h-.406v-.175zm1.828-.324c0-.33.23-.515.517-.515.286 0 .518.184.518.516s-.225.516-.518.516c-.292 0-.517-.184-.517-.515m.692.006c0-.202-.072-.296-.175-.296-.104 0-.174.094-.174.296 0 .2.07.3.174.3.102 0 .175-.098.175-.3m.924.13v-.413c0-.016-.023-.04-.04-.04h-.036v-.183h.51v.183h-.1v.47c0 .105.042.15.137.15.097 0 .14-.045.14-.15v-.47h-.1v-.183h.424v.183h-.035c-.017 0-.04.024-.04.04v.413c0 .248-.14.376-.427.376-.29 0-.434-.128-.434-.376m1.46.19h.04c.018 0 .04-.027.04-.043v-.56c0-.016-.022-.04-.04-.04h-.04v-.183h.4l.298.516h.005v-.333h-.087v-.183h.402v.183h-.037c-.015 0-.038.024-.038.04v.777h-.29l-.33-.567h-.002v.392h.09v.176h-.41v-.175zm1.76 0h.046c.018 0 .04-.027.04-.043v-.59h-.08l-.02.184h-.2v-.376h.936v.377h-.197l-.022-.185h-.08v.59c0 .017.022.043.04.043h.047v.176h-.51v-.175zm1.133 0h.02c.022 0 .043-.02.054-.046l.196-.558c.006-.016-.007-.04-.025-.04h-.048v-.182h.538l.25.79c.006.017.028.034.043.034h.023v.176h-.508v-.176h.11l-.036-.13h-.283c-.026.087-.018.13.052.13h.036v.176h-.424v-.175zm.386-.282h.187l-.085-.295h-.003l-.1.294zm1.187.28h.05c.016 0 .04-.025.04-.04v-.56c0-.017-.024-.04-.04-.04h-.05v-.184h.512v.183h-.05c-.017 0-.04.024-.04.04v.56c0 .016.023.042.04.042h.05v.176h-.513v-.175zm1.035 0h.04c.02 0 .04-.025.04-.04v-.56c0-.017-.02-.04-.04-.04h-.04v-.184h.4l.3.516h.004v-.333h-.088v-.183h.403v.183h-.036c-.016 0-.038.024-.038.04v.777h-.29l-.33-.567h-.004v.392h.09v.176h-.41v-.175zm2.24 0h.042c.018 0 .04-.025.04-.04v-.56c0-.017-.022-.04-.04-.04h-.04v-.184h.496c.29 0 .422.095.422.286 0 .118-.057.19-.193.227v.006c.1.02.15.064.183.204l.016.064c.005.025.02.036.035.036h.024v.176h-.367l-.032-.27c-.01-.083-.038-.11-.11-.11h-.06v.205h.09v.176h-.506v-.175zm.407-.378h.057c.096 0 .123-.044.123-.124s-.03-.126-.123-.126h-.058v.25zm1.102.38h.042c.017 0 .04-.027.04-.043v-.56c0-.016-.023-.04-.04-.04h-.042v-.183h.852v.324h-.193l-.027-.127h-.214v.19h.228v.204h-.23v.218h.22l.028-.15h.2v.342h-.863v-.175zm1.608.175h-.212v-.314h.217l.028.124c.02.007.047.01.085.01.076 0 .122-.025.122-.09 0-.067-.065-.08-.17-.108-.147-.04-.278-.1-.278-.314 0-.227.156-.32.37-.32.09 0 .143.006.184.015h.183v.29h-.215l-.028-.107a.25.25 0 0 0-.074-.01c-.08 0-.122.025-.122.087 0 .067.065.078.14.1.238.063.33.13.33.32 0 .217-.12.335-.39.335a1.215 1.215 0 0 1-.17-.017m1.09-.5c0-.33.23-.515.517-.515.285 0 .517.184.517.516s-.224.516-.517.516-.518-.184-.518-.515m.69.006c0-.202-.07-.296-.174-.296-.104 0-.175.094-.175.296 0 .2.07.3.176.3.103 0 .174-.098.174-.3m.857.32h.042c.016 0 .038-.027.038-.043v-.56c0-.016-.022-.04-.04-.04h-.04v-.183h.496c.29 0 .423.095.423.286 0 .118-.058.19-.194.227v.006c.103.02.152.064.184.204l.016.064c.007.025.023.036.036.036h.023v.176h-.365l-.033-.27c-.01-.083-.038-.11-.11-.11h-.062v.205h.09v.176h-.505v-.175zm.407-.38h.056c.096 0 .123-.044.123-.124s-.028-.126-.123-.126h-.057v.25zm1.265.38h.046c.018 0 .04-.027.04-.043v-.59h-.08l-.02.184h-.2v-.376h.936v.377h-.197l-.022-.185h-.08v.59c0 .017.022.043.04.043h.047v.176h-.51v-.175z"/><path fill="none" d="M0 0h45v40H0z"/></svg>